#!OML:ASF E:\Style4\Style4.ASF
:FULLY-SPECIFIED
:DEGREES
3621
root 0.469977 16.8919 -1.61489 4.43499 2.82092 3.97621
lowerback 18.8655 5.20581 -1.57015
upperback 12.4573 6.57221 -0.679582
thorax 2.85704 3.26398 -0.883796
lowerneck 7.24804 -2.83295 -7.59474
upperneck 1.77452 -4.3035 2.64004
head -0.449127 -2.20342 2.24542
rclavicle 3.57812e-015 1.59028e-015
rhumerus 23.449 18.8437 -75.4813
rradius 129.828
rwrist 7.52805
rhand 21.7389 -6.7652
rfingers 7.12502
rthumb 46.1514 -29.7964
lclavicle 3.57812e-015 1.59028e-015
lhumerus 25.2371 -12.696 71.1582
lradius 133.437
lwrist -9.18898
lhand 25.1245 47.5316
lfingers 7.12502
lthumb 49.2754 69.1266
rfemur -33.4306 -8.63326 13.5534
rtibia 54.6483
rfoot -22.0026 -16.9331
rtoes -12.3031
lfemur -32.626 5.71287 -25.8707
ltibia 50.7503
lfoot -22.395 7.13496
ltoes -13.4456
3622
root 0.510429 16.9056 -1.61499 4.39743 1.8047 3.98766
lowerback 18.753 5.15071 -1.70836
upperback 12.3859 6.47289 -0.657725
thorax 2.81589 3.20014 -0.763857
lowerneck 7.09061 -2.80351 -7.66771
upperneck 1.8726 -4.25909 2.49896
head -0.3945 -2.18137 2.20566
rclavicle -5.96354e-015 1.59028e-014
rhumerus 23.6253 18.8476 -75.4749
rradius 129.877
rwrist 7.6401
rhand 21.9841 -6.68969
rfingers 7.12502
rthumb 46.3787 -29.6249
lclavicle -5.96354e-015 1.59028e-014
lhumerus 25.4674 -12.5676 71.0082
lradius 133.401
lwrist -9.12468
lhand 24.839 47.6268
lfingers 7.12502
lthumb 49.0133 69.3526
rfemur -33.4429 -8.12406 13.3968
rtibia 54.2829
rfoot -21.6339 -16.5539
rtoes -12.4594
lfemur -32.401 6.15422 -26.0295
ltibia 50.5612
lfoot -22.5393 7.5367
ltoes -13.185
3623
root 0.549203 16.921 -1.61381 4.34248 0.780012 4.01066
lowerback 18.8485 5.32433 -1.52208
upperback 12.2483 6.70954 -0.852191
thorax 2.66338 3.33503 -1.12427
lowerneck 6.89723 -3.15508 -6.83204
upperneck 1.96963 -4.64966 2.25441
head -0.332471 -2.3697 1.97473
rclavicle 3.4191e-014 -9.54166e-015
rhumerus 23.3025 18.0802 -75.7995
rradius 130.145
rwrist 7.89887
rhand 21.6874 -7.50583
rfingers 7.12502
rthumb 46.1037 -30.5571
lclavicle 3.4191e-014 -9.54166e-015
lhumerus 26.1752 -13.3676 70.6171
lradius 133.294
lwrist -9.14318
lhand 24.4862 47.653
lfingers 7.12502
lthumb 48.689 69.5378
rfemur -33.4311 -7.57793 13.2283
rtibia 53.8949
rfoot -21.3633 -16.1683
rtoes -12.6016
lfemur -32.1471 6.5977 -26.1875
ltibia 50.3436
lfoot -22.6402 7.94191
ltoes -12.959
3624
root 0.58814 16.9375 -1.61483 4.27916 -0.19198 3.87817
lowerback 19.0907 5.36605 -1.33611
upperback 11.993 6.76723 -0.93181
thorax 2.29172 3.37345 -1.35711
lowerneck 6.84634 -3.40674 -6.36502
upperneck 2.15298 -4.94517 2.0799
head -0.266291 -2.51476 1.83492
rclavicle 4.21423e-014 -3.89618e-014
rhumerus 22.9384 17.6095 -76.0663
rradius 130.211
rwrist 8.27502
rhand 21.1895 -7.82564
rfingers 7.12502
rthumb 45.6415 -31.068
lclavicle 4.21423e-014 -3.89618e-014
lhumerus 26.4871 -13.8518 70.3453
lradius 133.289
lwrist -9.28824
lhand 24.3719 47.5434
lfingers 7.12502
lthumb 48.5839 69.4792
rfemur -33.3924 -7.01288 13.2312
rtibia 53.4642
rfoot -21.1372 -15.7785
rtoes -12.7848
lfemur -31.915 7.02477 -26.1749
ltibia 50.1272
lfoot -22.8222 8.31353
ltoes -12.4767
3625
root 0.62943 16.9559 -1.6169 4.21257 -1.17022 3.79778
lowerback 18.077 5.34831 -1.18733
upperback 12.5791 6.80447 -0.792337
thorax 3.44998 3.3927 -1.16612
lowerneck 6.8229 -3.61126 -6.54358
upperneck 1.52549 -5.2336 2.03956
head -0.443864 -2.65027 1.86852
rclavicle -4.41302e-014 4.77083e-015
rhumerus 23.9273 16.8363 -75.4678
rradius 130.119
rwrist 8.44952
rhand 21.0876 -7.76303
rfingers 7.12502
rthumb 45.5469 -31.0439
lclavicle -4.41302e-014 4.77083e-015
lhumerus 27.705 -13.8031 70.3499
lradius 133.277
lwrist -9.45344
lhand 24.5092 47.4831
lfingers 7.12502
lthumb 48.7102 69.3577
rfemur -33.3455 -6.49905 13.1738
rtibia 53.0102
rfoot -20.8764 -15.3177
rtoes -12.9413
lfemur -31.6599 7.44272 -26.2179
ltibia 49.8863
lfoot -23.0007 8.69333
ltoes -12.0801
3626
root 0.670533 16.9744 -1.61812 4.12695 -2.11604 3.74855
lowerback 17.989 5.25309 -1.24168
upperback 12.577 6.66585 -0.709108
thorax 3.47235 3.31133 -1.02152
lowerneck 6.79209 -3.68528 -6.68163
upperneck 1.43374 -5.3421 1.90353
head -0.462483 -2.70186 1.85124
rclavicle -4.6118e-014 1.35174e-014
rhumerus 24.1355 16.5187 -75.348
rradius 130.107
rwrist 8.64247
rhand 21.0606 -7.92984
rfingers 7.12502
rthumb 45.5218 -31.2209
lclavicle -4.6118e-014 1.35174e-014
lhumerus 28.0564 -13.8082 70.2675
lradius 133.265
lwrist -9.61146
lhand 24.5893 47.3844
lfingers 7.12502
lthumb 48.7838 69.223
rfemur -33.2418 -6.07514 13.0992
rtibia 52.5421
rfoot -20.547 -14.9291
rtoes -13.1634
lfemur -31.3857 7.85662 -26.2918
ltibia 49.6559
lfoot -23.1365 9.09451
ltoes -11.7726
3627
root 0.711445 16.9903 -1.6172 4.0636 -3.12103 3.73015
lowerback 17.8991 5.17949 -1.28817
upperback 12.5651 6.5566 -0.697768
thorax 3.49635 3.24839 -0.961217
lowerneck 6.77143 -3.79057 -6.71199
upperneck 1.28931 -5.48547 1.81177
head -0.499535 -2.77014 1.83125
rclavicle -8.11041e-014 2.78299e-014
rhumerus 24.2895 16.2201 -75.3314
rradius 130.066
rwrist 8.94461
rhand 20.7748 -8.13
rfingers 7.12502
rthumb 45.2562 -31.5279
lclavicle -8.11041e-014 2.78299e-014
lhumerus 28.6443 -13.8503 70.0544
lradius 133.109
lwrist -9.80252
lhand 24.7082 47.2789
lfingers 7.12502
lthumb 48.8931 69.064
rfemur -33.1929 -5.60541 12.9904
rtibia 52.0892
rfoot -20.193 -14.5369
rtoes -13.4575
lfemur -31.1377 8.33097 -26.411
ltibia 49.4289
lfoot -23.2608 9.60039
ltoes -12.028
3628
root 0.75472 17.0052 -1.61434 4.01719 -4.17693 3.67867
lowerback 17.7555 5.12639 -1.26959
upperback 12.5102 6.48423 -0.735189
thorax 3.51395 3.2102 -0.990555
lowerneck 6.9866 -3.91118 -6.59497
upperneck 1.08842 -5.65394 1.77867
head -0.596062 -2.8505 1.81329
rclavicle -1.27222e-014 1.19271e-014
rhumerus 24.3163 15.8645 -75.4054
rradius 130.055
rwrist 9.25209
rhand 20.6361 -8.28376
rfingers 7.12502
rthumb 45.1272 -31.733
lclavicle -1.27222e-014 1.19271e-014
lhumerus 29.2692 -13.987 69.7973
lradius 132.928
lwrist -9.87493
lhand 24.7326 47.3763
lfingers 7.12502
lthumb 48.9155 69.1504
rfemur -33.1767 -5.10598 12.9159
rtibia 51.6387
rfoot -19.856 -14.1363
rtoes -13.9528
lfemur -30.9102 8.86368 -26.509
ltibia 49.2081
lfoot -23.4071 10.1041
ltoes -12.2168
3629
root 0.799497 17.0217 -1.61212 3.94924 -5.22847 3.62107
lowerback 17.7081 5.02678 -1.1986
upperback 12.497 6.35539 -0.775912
thorax 3.53392 3.14719 -1.05036
lowerneck 6.94684 -4.01267 -6.57793
upperneck 0.965682 -5.78727 1.73791
head -0.623654 -2.91461 1.80071
rclavicle 1.51076e-014 -1.59028e-015
rhumerus 24.4536 15.5408 -75.428
rradius 130.058
rwrist 9.57453
rhand 20.1439 -8.58653
rfingers 7.12502
rthumb 44.6691 -32.2153
lclavicle 1.51076e-014 -1.59028e-015
lhumerus 29.9737 -13.9285 69.4752
lradius 132.705
lwrist -9.76238
lhand 24.5576 47.2537
lfingers 7.12502
lthumb 48.7547 69.1066
rfemur -33.1332 -4.63182 12.8452
rtibia 51.1844
rfoot -19.5176 -13.7704
rtoes -14.529
lfemur -30.6534 9.40446 -26.5935
ltibia 48.9827
lfoot -23.6238 10.4873
ltoes -11.7194
3630
root 0.844665 17.0395 -1.6101 3.88048 -6.23737 3.64795
lowerback 17.7012 4.79545 -1.34526
upperback 12.5626 6.02509 -0.750827
thorax 3.58725 2.96563 -0.89305
lowerneck 6.34236 -3.96583 -6.86488
upperneck 1.08766 -5.70655 1.62119
head -0.480953 -2.87558 1.79076
rclavicle -7.15625e-015 -7.15625e-015
rhumerus 24.8782 15.7281 -75.299
rradius 130.209
rwrist 9.81227
rhand 19.7417 -9.80184
rfingers 7.12502
rthumb 44.2944 -33.574
lclavicle -7.15625e-015 -7.15625e-015
lhumerus 30.6853 -13.4097 69.256
lradius 132.379
lwrist -9.65257
lhand 24.4751 46.8401
lfingers 7.12502
lthumb 48.6788 68.7299
rfemur -33.0817 -4.21373 12.6842
rtibia 50.7228
rfoot -19.1587 -13.3318
rtoes -15.0438
lfemur -30.4029 9.88967 -26.7695
ltibia 48.7487
lfoot -23.8662 10.9427
ltoes -11.8485
3631
root 0.889598 17.0574 -1.60582 3.8416 -7.24925 3.63036
lowerback 17.6114 4.57558 -1.57995
upperback 12.486 5.69903 -0.667516
thorax 3.5125 2.77825 -0.627582
lowerneck 6.32292 -3.86709 -7.0063
upperneck 1.08088 -5.58729 1.36194
head -0.488289 -2.81327 1.72961
rclavicle -2.34566e-014 2.38542e-015
rhumerus 25.0091 15.9352 -75.221
rradius 130.442
rwrist 10.0162
rhand 20.4551 -10.8132
rfingers 7.12502
rthumb 44.9588 -34.329
lclavicle -2.34566e-014 2.38542e-015
lhumerus 31.001 -13.121 69.3177
lradius 132.165
lwrist -9.92335
lhand 24.9563 46.6416
lfingers 7.12502
lthumb 49.121 68.3139
rfemur -33.0441 -3.75833 12.5758
rtibia 50.2647
rfoot -18.772 -12.9115
rtoes -15.474
lfemur -30.1928 10.3631 -26.9031
ltibia 48.5378
lfoot -24.0899 11.4464
ltoes -12.1328
3632
root 0.937457 17.0722 -1.59815 3.80017 -8.34151 3.50083
lowerback 17.5394 4.43097 -1.59755
upperback 12.3458 5.49829 -0.613805
thorax 3.38523 2.66979 -0.534552
lowerneck 6.6347 -3.85829 -7.01644
upperneck 0.945348 -5.60375 1.156
head -0.588619 -2.81611 1.67722
rclavicle 1.11319e-014 -1.59028e-014
rhumerus 24.9391 15.6015 -75.365
rradius 130.447
rwrist 10.2921
rhand 21.5388 -10.4731
rfingers 7.12502
rthumb 45.9658 -33.5819
lclavicle 1.11319e-014 -1.59028e-014
lhumerus 31.2137 -13.1309 69.2913
lradius 132.157
lwrist -10.2018
lhand 25.5039 46.9228
lfingers 7.12502
lthumb 49.6234 68.3411
rfemur -33.0213 -3.20231 12.5659
rtibia 49.8264
rfoot -18.4457 -12.478
rtoes -15.6232
lfemur -29.9763 10.8177 -26.917
ltibia 48.3633
lfoot -24.3347 11.9063
ltoes -11.6797
